<?xml version="1.0" encoding="UTF-8"?>
<!DOCTYPE svg PUBLIC "-//W3C//DTD SVG 1.1//EN" "http://www.w3.org/Graphics/SVG/1.1/DTD/svg11.dtd">
<!-- Creator: CorelDRAW 2026 -->
<svg xmlns="http://www.w3.org/2000/svg" xml:space="preserve" width="246.906mm" height="80.8452mm" version="1.1" style="shape-rendering:geometricPrecision; text-rendering:geometricPrecision; image-rendering:optimizeQuality; fill-rule:evenodd; clip-rule:evenodd"
viewBox="0 0 7446.46 2438.21"
 xmlns:xlink="http://www.w3.org/1999/xlink"
 xmlns:xodm="http://www.corel.com/coreldraw/odm/2003">
 <defs>
  <style type="text/css">
   <![CDATA[
    .fil1 {fill:#31005C}
    .fil0 {fill:#EFA005}
    .fil2 {fill:#31005C;fill-rule:nonzero}
   ]]>
  </style>
 </defs>
 <g id="Layer_x0020_1">
  <metadata id="CorelCorpID_0Corel-Layer"/>
  <g id="_105553544922304">
   <circle class="fil0" cx="1803.44" cy="1590.43" r="239.89"/>
   <circle class="fil0" cx="3916.78" cy="1590.43" r="239.89"/>
   <g>
    <path class="fil1" d="M648.17 510.16l-1.2 -84.31 -334.08 -28.56 -312.89 1896.34c127.83,8.62 198.45,84.96 261.81,144.58l454.66 -96.81c161.25,-31.53 808.8,-169.65 813.89,-172.04 -356.9,-8.98 -343.84,19.04 -713.93,75.07l-419.55 66.14 93.57 -1799.47 157.71 -0.93zm65.6 0.29l664.31 0.27 -0.42 -21.15 -658.61 -56.22c-9.9,19.45 -5.84,50.85 -5.28,77.1z"/>
    <path class="fil0" d="M648.7 675.39c-22.23,21.07 -50.58,40.71 -42.73,86.48 14.24,83 136.87,82.72 150.25,0.85 9.07,-55.54 -18.57,-61.96 -41.35,-87.33 -1.12,-167.49 -35.91,-380.29 90.47,-509.4 139.76,-142.78 380.4,-136.45 506.92,29.78 94.23,123.81 65.84,327.25 66.03,479.62 -23.15,23.62 -50.66,38.11 -42.41,86.78 5.8,34.22 34.06,60.83 74.04,61.45 41.91,0.65 70.67,-26.14 76.07,-60.49 8.04,-51.18 -18.01,-65.63 -42.26,-87.73 -0.73,-172.14 27.76,-381.29 -81.72,-522.72 -53.71,-69.38 -156.37,-144.33 -281.77,-151.79 -135.18,-8.05 -242.21,40.39 -314.35,112.95 -150.82,151.7 -117.82,364 -117.19,561.56z"/>
    <path class="fil2" d="M987.88 1992.39c-58.79,0 -110.04,-9.04 -153.75,-28.64 -43.71,-19.6 -79.89,-45.22 -110.04,-75.37 -28.64,-30.15 -51.25,-61.8 -66.32,-96.47 -16.58,-33.16 -25.63,-64.82 -28.64,-93.46l211.03 -70.85c12.06,46.73 31.65,81.4 57.28,105.52 24.12,24.12 55.77,36.18 93.46,36.18 28.64,0 54.27,-6.03 76.88,-18.09 24.12,-12.06 42.2,-31.65 55.77,-58.79 13.57,-27.13 21.1,-61.8 21.1,-102.5l0 -675.3 242.69 0 0 738.61c0,51.25 -10.55,97.98 -28.64,140.19 -19.6,40.7 -46.73,76.88 -81.4,107.03 -34.67,28.64 -76.88,52.76 -126.62,67.83 -48.24,16.58 -102.5,24.12 -162.8,24.12z"/>
    <path id="_1" class="fil2" d="M1846.44 1987.87c-79.89,0 -149.23,-16.58 -209.52,-51.25 -60.3,-33.16 -108.53,-79.89 -143.2,-138.68 -34.67,-58.79 -51.25,-128.13 -51.25,-205 0,-76.88 16.58,-146.22 51.25,-205 33.16,-58.79 81.4,-105.52 141.69,-140.19 60.29,-33.16 129.63,-49.74 206.51,-49.74 79.89,0 149.23,16.58 209.52,49.74 60.29,34.67 108.53,81.4 141.69,140.19 34.67,58.79 51.25,128.12 51.25,205 0,76.88 -16.58,146.21 -51.25,205 -33.16,58.79 -79.89,105.51 -140.19,138.68 -60.29,34.67 -129.64,51.25 -206.51,51.25zm0 -217.06c30.15,0 57.28,-7.54 81.4,-22.61 24.12,-15.07 42.2,-36.18 55.77,-63.31 13.57,-25.63 19.59,-57.28 19.59,-91.95 0,-34.67 -6.03,-66.33 -19.59,-91.95 -13.57,-27.13 -33.16,-48.23 -57.28,-63.31 -24.12,-15.07 -51.25,-22.61 -82.91,-22.61 -31.65,0 -58.79,7.54 -82.9,22.61 -24.12,15.08 -42.21,36.18 -55.77,63.31 -13.57,25.63 -21.1,57.28 -21.1,91.95 0,34.67 7.54,64.82 21.1,91.95 13.57,27.13 31.65,48.24 57.28,63.31 24.12,15.07 52.76,22.61 84.41,22.61z"/>
    <path id="_2" class="fil2" d="M2289.71 1969.78l0 -753.69 221.58 0 9.04 94.96c24.12,-36.18 54.27,-64.81 90.44,-84.41 34.67,-19.59 73.86,-28.64 117.57,-28.64 61.8,0 113.05,12.06 153.75,37.68 40.7,25.63 70.85,64.82 90.44,117.57 22.61,-49.74 54.27,-88.94 94.96,-116.07 39.19,-25.63 85.92,-39.19 135.66,-39.19 90.44,0 158.27,27.13 205,82.9 45.22,55.77 67.83,141.69 66.32,257.76l0 431.11 -235.15 0 0 -385.89c0,-40.7 -3.02,-72.35 -12.06,-94.96 -9.04,-24.12 -21.1,-40.7 -37.68,-52.76 -15.07,-10.55 -34.67,-16.58 -57.28,-18.09 -43.71,-1.51 -76.88,10.55 -97.98,36.18 -22.61,27.13 -34.67,64.82 -34.67,117.57l0 397.95 -235.15 0 0 -385.89c0,-40.7 -4.52,-72.35 -12.06,-94.96 -9.04,-24.12 -21.11,-40.7 -37.69,-52.76 -16.58,-10.55 -34.67,-16.58 -57.28,-18.09 -43.72,-1.51 -76.88,10.55 -99.49,36.18 -22.61,27.13 -33.16,64.82 -33.16,117.57l0 397.95 -235.15 0z"/>
    <path id="_3" class="fil2" d="M3556.26 2271.25l0 -1055.16 221.58 0 9.04 96.47c24.12,-37.68 54.27,-66.32 91.95,-85.92 36.18,-19.59 78.38,-28.64 126.62,-28.64 70.85,0 131.14,15.07 182.39,46.73 51.25,31.65 90.44,78.38 117.57,137.17 27.13,58.79 40.7,128.13 40.7,211.03 0,81.4 -13.57,150.74 -40.7,211.03 -27.13,58.79 -66.32,104.01 -117.57,135.66 -51.25,33.16 -111.55,48.24 -182.39,48.24 -46.73,0 -88.93,-9.04 -123.6,-28.64 -36.18,-18.09 -66.33,-45.22 -90.44,-79.89l0 391.92 -235.15 0zm388.9 -500.45c30.15,0 57.28,-7.54 79.89,-22.61 24.12,-15.07 42.21,-36.18 55.77,-63.31 13.57,-27.13 21.1,-57.28 21.1,-91.95 0,-34.67 -6.03,-64.82 -19.59,-91.95 -13.57,-27.13 -31.65,-48.23 -55.77,-63.31 -22.61,-15.07 -49.74,-22.61 -79.89,-22.61 -30.15,0 -57.28,7.54 -81.4,22.61 -22.61,15.08 -40.7,36.18 -54.27,63.31 -13.57,27.13 -19.59,57.28 -19.59,91.95 0,34.67 6.03,66.32 19.59,91.95 13.57,27.13 31.65,48.24 54.27,63.31 22.61,15.07 49.74,22.61 79.89,22.61z"/>
    <path id="_4" class="fil2" d="M4675.08 1987.87c-49.74,0 -94.96,-7.54 -137.17,-21.11 -43.72,-15.07 -79.89,-34.67 -111.55,-61.8 -31.65,-27.13 -54.27,-58.79 -69.34,-97.98l192.94 -81.4c12.06,25.63 30.15,45.22 54.27,57.28 22.61,13.57 46.73,19.59 70.85,19.59 24.12,0 43.72,-4.52 58.79,-12.06 13.57,-9.04 21.1,-21.11 21.1,-36.18 0,-16.58 -7.54,-28.64 -22.61,-37.68 -13.57,-9.04 -34.67,-16.58 -61.8,-24.12l-64.82 -16.58c-70.85,-18.09 -125.11,-46.73 -162.8,-88.93 -37.68,-42.21 -55.77,-90.44 -55.77,-146.22 0,-76.88 25.63,-137.17 79.89,-179.38 52.76,-42.21 126.62,-63.31 221.58,-63.31 52.76,0 99.49,7.54 140.19,21.1 40.7,15.07 75.37,34.67 102.5,60.29 27.13,25.63 48.24,55.77 60.29,88.94l-186.91 76.88c-7.54,-19.59 -21.1,-34.67 -43.72,-45.22 -21.1,-10.55 -45.22,-16.58 -70.85,-16.58 -22.61,0 -39.19,4.52 -51.25,15.07 -12.06,9.04 -18.09,22.61 -18.09,37.69 0,12.06 7.54,22.61 21.11,31.65 15.07,9.04 36.18,16.58 64.81,22.61l79.89 19.59c46.73,12.06 87.43,30.15 119.08,54.27 31.65,25.63 55.77,54.27 72.35,87.43 16.58,33.16 24.12,67.83 24.12,104.01 0,48.24 -13.57,88.94 -42.21,123.6 -27.13,34.67 -66.32,61.8 -114.56,79.89 -49.74,19.6 -105.52,28.64 -170.34,28.64z"/>
    <path id="_5" class="fil2" d="M5046.51 1969.78l0 -1055.16 235.15 0 0 391.92c24.12,-36.18 54.27,-63.31 90.44,-81.4 36.18,-18.09 75.37,-27.13 117.57,-27.13 61.8,0 111.55,12.06 153.75,36.18 40.7,24.12 70.85,61.8 91.95,113.05 21.1,49.74 31.65,114.56 31.65,192.94l0 429.6 -235.15 0 0 -385.89c0,-40.7 -4.52,-72.35 -13.57,-94.96 -9.04,-24.12 -22.61,-40.7 -39.19,-52.76 -16.58,-10.55 -37.68,-16.58 -60.29,-18.09 -45.22,-1.51 -79.89,10.55 -102.5,36.18 -24.12,27.13 -34.67,64.82 -34.67,117.57l0 397.95 -235.15 0z"/>
    <path id="_6" class="fil2" d="M6205.28 1987.87c-79.89,0 -149.23,-16.58 -209.52,-51.25 -60.3,-33.16 -108.53,-79.89 -143.2,-138.68 -34.67,-58.79 -51.25,-128.13 -51.25,-205 0,-76.88 16.58,-146.22 51.25,-205 33.16,-58.79 81.4,-105.52 141.69,-140.19 60.29,-33.16 129.63,-49.74 206.51,-49.74 79.89,0 149.23,16.58 209.52,49.74 60.29,34.67 108.53,81.4 141.69,140.19 34.67,58.79 51.25,128.12 51.25,205 0,76.88 -16.58,146.21 -51.25,205 -33.16,58.79 -79.89,105.51 -140.19,138.68 -60.29,34.67 -129.64,51.25 -206.51,51.25zm0 -217.06c30.15,0 57.28,-7.54 81.4,-22.61 24.12,-15.07 42.2,-36.18 55.77,-63.31 13.57,-25.63 19.59,-57.28 19.59,-91.95 0,-34.67 -6.03,-66.33 -19.59,-91.95 -13.57,-27.13 -33.16,-48.23 -57.28,-63.31 -24.12,-15.07 -51.25,-22.61 -82.91,-22.61 -31.65,0 -58.79,7.54 -82.9,22.61 -24.12,15.08 -42.21,36.18 -55.77,63.31 -13.57,25.63 -21.1,57.28 -21.1,91.95 0,34.67 7.54,64.82 21.1,91.95 13.57,27.13 31.65,48.24 57.28,63.31 24.12,15.07 52.76,22.61 84.41,22.61z"/>
    <path id="_7" class="fil2" d="M6656.09 2271.25l0 -1055.16 221.58 0 9.04 96.47c24.12,-37.68 54.27,-66.32 91.95,-85.92 36.18,-19.59 78.38,-28.64 126.62,-28.64 70.85,0 131.14,15.07 182.39,46.73 51.25,31.65 90.44,78.38 117.57,137.17 27.13,58.79 40.7,128.13 40.7,211.03 0,81.4 -13.57,150.74 -40.7,211.03 -27.13,58.79 -66.32,104.01 -117.57,135.66 -51.25,33.16 -111.55,48.24 -182.39,48.24 -46.73,0 -88.93,-9.04 -123.6,-28.64 -36.18,-18.09 -66.33,-45.22 -90.44,-79.89l0 391.92 -235.15 0zm388.9 -500.45c30.15,0 57.28,-7.54 79.89,-22.61 24.12,-15.07 42.21,-36.18 55.77,-63.31 13.57,-27.13 21.1,-57.28 21.1,-91.95 0,-34.67 -6.03,-64.82 -19.59,-91.95 -13.57,-27.13 -31.65,-48.23 -55.77,-63.31 -22.61,-15.07 -49.74,-22.61 -79.89,-22.61 -30.15,0 -57.28,7.54 -81.4,22.61 -22.61,15.08 -40.7,36.18 -54.27,63.31 -13.57,27.13 -19.59,57.28 -19.59,91.95 0,34.67 6.03,66.32 19.59,91.95 13.57,27.13 31.65,48.24 54.27,63.31 22.61,15.07 49.74,22.61 79.89,22.61z"/>
   </g>
  </g>
 </g>
</svg>
