<?xml version="1.0" encoding="utf-8"?><svg fill="none" viewBox="0 0 800 600" xmlns="http://www.w3.org/2000/svg"><defs><clipPath id="cp-800-600"><rect height="600" width="800" y="0" x="0" /></clipPath><g id="comp_0"><g transform="matrix(-0.5,-0.866,0.866,-0.5,398.829,302.128)" visibility="hidden" id="形状图层 19"><animate repeatCount="indefinite" begin="6s" calcMode="discrete" fill="freeze" dur="4.033s" values="visible; hidden" keyTimes="0; 1" attributeName="visibility" /><g id="椭圆 1" transform="matrix(1,0,0,1,1.258,2.078)"><ellipse ry="100" rx="100" cy="0" cx="0" stroke-linejoin="miter" stroke-linecap="round" stroke-width="40" stroke-opacity="1" stroke="#1762df" /></g></g><g transform="matrix(-0.174,-0.985,0.985,-0.174,398.172,301.6)" visibility="hidden" id="形状图层 20"><animate repeatCount="indefinite" begin="6s" calcMode="discrete" fill="freeze" dur="4.033s" values="visible; hidden" keyTimes="0; 1" attributeName="visibility" /><g id="椭圆 1" transform="matrix(1,0,0,1,1.258,2.078)"><ellipse ry="100" rx="100" cy="0" cx="0" stroke-linejoin="miter" stroke-linecap="round" stroke-width="40" stroke-opacity="1" stroke="#1762df" /></g></g><g transform="matrix(0.174,-0.985,0.985,0.174,397.735,300.878)" visibility="hidden" id="形状图层 21"><animate repeatCount="indefinite" begin="6s" calcMode="discrete" fill="freeze" dur="4.033s" values="visible; hidden" keyTimes="0; 1" attributeName="visibility" /><g id="椭圆 1" transform="matrix(1,0,0,1,1.258,2.078)"><ellipse ry="100" rx="100" cy="0" cx="0" stroke-linejoin="miter" stroke-linecap="round" stroke-width="40" stroke-opacity="1" stroke="#1762df" /></g></g><g transform="matrix(0.5,-0.866,0.866,0.5,397.571,300.05)" visibility="hidden" id="形状图层 22"><animate repeatCount="indefinite" begin="6s" calcMode="discrete" fill="freeze" dur="4.033s" values="visible; hidden" keyTimes="0; 1" attributeName="visibility" /><g id="椭圆 1" transform="matrix(1,0,0,1,1.258,2.078)"><ellipse ry="100" rx="100" cy="0" cx="0" stroke-linejoin="miter" stroke-linecap="round" stroke-width="40" stroke-opacity="1" stroke="#1762df" /></g></g><g transform="matrix(0.766,-0.643,0.643,0.766,397.701,299.217)" visibility="hidden" id="形状图层 23"><animate repeatCount="indefinite" begin="6s" calcMode="discrete" fill="freeze" dur="4.033s" values="visible; hidden" keyTimes="0; 1" attributeName="visibility" /><g id="椭圆 1" transform="matrix(1,0,0,1,1.258,2.078)"><ellipse ry="100" rx="100" cy="0" cx="0" stroke-linejoin="miter" stroke-linecap="round" stroke-width="40" stroke-opacity="1" stroke="#1762df" /></g></g><g transform="matrix(0.94,-0.342,0.342,0.94,398.107,298.478)" visibility="hidden" id="形状图层 24"><animate repeatCount="indefinite" begin="6s" calcMode="discrete" fill="freeze" dur="4.033s" values="visible; hidden" keyTimes="0; 1" attributeName="visibility" /><g id="椭圆 1" transform="matrix(1,0,0,1,1.258,2.078)"><ellipse ry="100" rx="100" cy="0" cx="0" stroke-linejoin="miter" stroke-linecap="round" stroke-width="40" stroke-opacity="1" stroke="#1762df" /></g></g><g transform="matrix(1,0,0,1,398.742,297.922)" visibility="hidden" id="形状图层 1"><animate repeatCount="indefinite" begin="2.6s" calcMode="discrete" fill="freeze" dur="13.067s" values="visible; visible" keyTimes="0; 1" attributeName="visibility" /><g id="椭圆 1" transform="matrix(1,0,0,1,1.258,2.078)"><ellipse ry="100" rx="100" cy="0" cx="0" stroke-linejoin="miter" stroke-linecap="round" stroke-width="40" stroke-opacity="1" stroke="#1762df" /></g></g><g transform="matrix(0.94,0.342,-0.342,0.94,399.529,297.617)" visibility="hidden" id="形状图层 2"><animate repeatCount="indefinite" begin="2.6s" calcMode="discrete" fill="freeze" dur="12.733s" values="visible; hidden" keyTimes="0; 1" attributeName="visibility" /><g id="椭圆 1" transform="matrix(1,0,0,1,1.258,2.078)"><ellipse ry="100" rx="100" cy="0" cx="0" stroke-linejoin="miter" stroke-linecap="round" stroke-width="40" stroke-opacity="1" stroke="#1762df" /></g></g><g transform="matrix(0.766,0.643,-0.643,0.766,400.372,297.6)" visibility="hidden" id="形状图层 3"><animate repeatCount="indefinite" begin="2.6s" calcMode="discrete" fill="freeze" dur="12.4s" values="visible; hidden" keyTimes="0; 1" attributeName="visibility" /><g id="椭圆 1" transform="matrix(1,0,0,1,1.258,2.078)"><ellipse ry="100" rx="100" cy="0" cx="0" stroke-linejoin="miter" stroke-linecap="round" stroke-width="40" stroke-opacity="1" stroke="#1762df" /></g></g><g transform="matrix(0.5,0.866,-0.866,0.5,401.171,297.872)" visibility="hidden" id="形状图层 4"><animate repeatCount="indefinite" begin="2.6s" calcMode="discrete" fill="freeze" dur="12.067s" values="visible; hidden" keyTimes="0; 1" attributeName="visibility" /><g id="椭圆 1" transform="matrix(1,0,0,1,1.258,2.078)"><ellipse ry="100" rx="100" cy="0" cx="0" stroke-linejoin="miter" stroke-linecap="round" stroke-width="40" stroke-opacity="1" stroke="#1762df" /></g></g><g transform="matrix(0.174,0.985,-0.985,0.174,401.828,298.4)" visibility="hidden" id="形状图层 5"><animate repeatCount="indefinite" begin="2.6s" calcMode="discrete" fill="freeze" dur="11.733s" values="visible; hidden" keyTimes="0; 1" attributeName="visibility" /><g id="椭圆 1" transform="matrix(1,0,0,1,1.258,2.078)"><ellipse ry="100" rx="100" cy="0" cx="0" stroke-linejoin="miter" stroke-linecap="round" stroke-width="40" stroke-opacity="1" stroke="#1762df" /></g></g><g transform="matrix(-0.174,0.985,-0.985,-0.174,402.265,299.122)" visibility="hidden" id="形状图层 6"><animate repeatCount="indefinite" begin="2.6s" calcMode="discrete" fill="freeze" dur="11.4s" values="visible; hidden" keyTimes="0; 1" attributeName="visibility" /><g id="椭圆 1" transform="matrix(1,0,0,1,1.258,2.078)"><ellipse ry="100" rx="100" cy="0" cx="0" stroke-linejoin="miter" stroke-linecap="round" stroke-width="40" stroke-opacity="1" stroke="#1762df" /></g></g><g transform="matrix(-0.5,0.866,-0.866,-0.5,402.429,299.95)" id="形状图层 7"><animate repeatCount="indefinite" begin="0s" calcMode="discrete" fill="freeze" dur="6.033s" values="visible; hidden" keyTimes="0; 1" attributeName="visibility" /><g id="椭圆 1" transform="matrix(1,0,0,1,1.258,2.078)"><ellipse ry="100" rx="100" cy="0" cx="0" stroke-linejoin="miter" stroke-linecap="round" stroke-width="40" stroke-opacity="1" stroke="#1762df" /></g></g><g transform="matrix(-0.766,0.643,-0.643,-0.766,402.299,300.783)" id="形状图层 8"><animate repeatCount="indefinite" begin="0s" calcMode="discrete" fill="freeze" dur="6.033s" values="visible; hidden" keyTimes="0; 1" attributeName="visibility" /><g id="椭圆 1" transform="matrix(1,0,0,1,1.258,2.078)"><ellipse ry="100" rx="100" cy="0" cx="0" stroke-linejoin="miter" stroke-linecap="round" stroke-width="40" stroke-opacity="1" stroke="#1762df" /></g></g><g transform="matrix(-0.94,0.342,-0.342,-0.94,401.893,301.522)" id="形状图层 9"><animate repeatCount="indefinite" begin="0s" calcMode="discrete" fill="freeze" dur="6.033s" values="visible; hidden" keyTimes="0; 1" attributeName="visibility" /><g id="椭圆 1" transform="matrix(1,0,0,1,1.258,2.078)"><ellipse ry="100" rx="100" cy="0" cx="0" stroke-linejoin="miter" stroke-linecap="round" stroke-width="40" stroke-opacity="1" stroke="#1762df" /></g></g><g transform="matrix(-1,0,0,-1,401.258,302.078)" id="形状图层 10"><animate repeatCount="indefinite" begin="0s" calcMode="discrete" fill="freeze" dur="6.033s" values="visible; hidden" keyTimes="0; 1" attributeName="visibility" /><g id="椭圆 1" transform="matrix(1,0,0,1,1.258,2.078)"><ellipse ry="100" rx="100" cy="0" cx="0" stroke-linejoin="miter" stroke-linecap="round" stroke-width="40" stroke-opacity="1" stroke="#1762df" /></g></g><g transform="matrix(-0.94,-0.342,0.342,-0.94,400.471,302.383)" id="形状图层 11"><animate repeatCount="indefinite" begin="0s" calcMode="discrete" fill="freeze" dur="6.033s" values="visible; hidden" keyTimes="0; 1" attributeName="visibility" /><g id="椭圆 1" transform="matrix(1,0,0,1,1.258,2.078)"><ellipse ry="100" rx="100" cy="0" cx="0" stroke-linejoin="miter" stroke-linecap="round" stroke-width="40" stroke-opacity="1" stroke="#1762df" /></g></g><g transform="matrix(-0.766,-0.643,0.643,-0.766,399.628,302.4)" id="形状图层 12"><animate repeatCount="indefinite" begin="0s" calcMode="discrete" fill="freeze" dur="6.033s" values="visible; hidden" keyTimes="0; 1" attributeName="visibility" /><g id="椭圆 1" transform="matrix(1,0,0,1,1.258,2.078)"><ellipse ry="100" rx="100" cy="0" cx="0" stroke-linejoin="miter" stroke-linecap="round" stroke-width="40" stroke-opacity="1" stroke="#1762df" /></g></g><g transform="matrix(-0.5,-0.866,0.866,-0.5,398.829,302.128)" id="形状图层 13"><animate repeatCount="indefinite" begin="0s" calcMode="discrete" fill="freeze" dur="4.033s" values="visible; hidden" keyTimes="0; 1" attributeName="visibility" /><g id="椭圆 1" transform="matrix(1,0,0,1,1.258,2.078)"><ellipse ry="100" rx="100" cy="0" cx="0" stroke-linejoin="miter" stroke-linecap="round" stroke-width="40" stroke-opacity="1" stroke="#1762df" /></g></g><g transform="matrix(-0.174,-0.985,0.985,-0.174,398.172,301.6)" id="形状图层 14"><animate repeatCount="indefinite" begin="0s" calcMode="discrete" fill="freeze" dur="4.033s" values="visible; hidden" keyTimes="0; 1" attributeName="visibility" /><g id="椭圆 1" transform="matrix(1,0,0,1,1.258,2.078)"><ellipse ry="100" rx="100" cy="0" cx="0" stroke-linejoin="miter" stroke-linecap="round" stroke-width="40" stroke-opacity="1" stroke="#1762df" /></g></g><g transform="matrix(0.174,-0.985,0.985,0.174,397.735,300.878)" id="形状图层 15"><animate repeatCount="indefinite" begin="0s" calcMode="discrete" fill="freeze" dur="4.033s" values="visible; hidden" keyTimes="0; 1" attributeName="visibility" /><g id="椭圆 1" transform="matrix(1,0,0,1,1.258,2.078)"><ellipse ry="100" rx="100" cy="0" cx="0" stroke-linejoin="miter" stroke-linecap="round" stroke-width="40" stroke-opacity="1" stroke="#1762df" /></g></g><g transform="matrix(0.5,-0.866,0.866,0.5,397.571,300.05)" id="形状图层 16"><animate repeatCount="indefinite" begin="0s" calcMode="discrete" fill="freeze" dur="4.033s" values="visible; hidden" keyTimes="0; 1" attributeName="visibility" /><g id="椭圆 1" transform="matrix(1,0,0,1,1.258,2.078)"><ellipse ry="100" rx="100" cy="0" cx="0" stroke-linejoin="miter" stroke-linecap="round" stroke-width="40" stroke-opacity="1" stroke="#1762df" /></g></g><g transform="matrix(0.766,-0.643,0.643,0.766,397.701,299.217)" id="形状图层 17"><animate repeatCount="indefinite" begin="0s" calcMode="discrete" fill="freeze" dur="4.033s" values="visible; hidden" keyTimes="0; 1" attributeName="visibility" /><g id="椭圆 1" transform="matrix(1,0,0,1,1.258,2.078)"><ellipse ry="100" rx="100" cy="0" cx="0" stroke-linejoin="miter" stroke-linecap="round" stroke-width="40" stroke-opacity="1" stroke="#1762df" /></g></g><g transform="matrix(0.94,-0.342,0.342,0.94,398.107,298.478)" id="形状图层 18"><animate repeatCount="indefinite" begin="0s" calcMode="discrete" fill="freeze" dur="4.033s" values="visible; hidden" keyTimes="0; 1" attributeName="visibility" /><g id="椭圆 1" transform="matrix(1,0,0,1,1.258,2.078)"><ellipse ry="100" rx="100" cy="0" cx="0" stroke-linejoin="miter" stroke-linecap="round" stroke-width="40" stroke-opacity="1" stroke="#1762df" /></g></g></g></defs><g transform="matrix(1,0,0,1,0,20)" opacity="0.56" id="预合成 1"><use clip-path="url(#cp-800-600)" height="600" width="800" y="0" x="0" xlink:href="#comp_0" href="#comp_0" /></g><g transform="matrix(1,0,0,1,0,0)" id="预合成 1"><use clip-path="url(#cp-800-600)" height="600" width="800" y="0" x="0" xlink:href="#comp_0" href="#comp_0" /></g></svg>